<?xml version="1.0" standalone="no"?>
<!DOCTYPE svg PUBLIC "-//W3C//DTD SVG 20010904//EN"
 "http://www.w3.org/TR/2001/REC-SVG-20010904/DTD/svg10.dtd">
<svg version="1.0" xmlns="http://www.w3.org/2000/svg"
 width="1080.000000pt" height="1080.000000pt" viewBox="0 0 1080.000000 1080.000000"
 preserveAspectRatio="xMidYMid meet">

<g transform="translate(0.000000,1080.000000) scale(0.100000,-0.100000)"
fill="#000000" stroke="none">
<path d="M0 5400 l0 -5400 5400 0 5400 0 0 5400 0 5400 -5400 0 -5400 0 0
-5400z m8472 4484 c186 -67 369 -227 453 -397 80 -161 76 -89 73 -1427 -2
-654 -6 -1192 -10 -1196 -5 -4 -11 -4 -15 0 -5 4 -10 551 -14 1214 -6 1345 0
1246 -76 1396 -73 146 -183 252 -338 327 -150 73 93 67 -3145 71 -2786 3
-2928 2 -2990 -15 -183 -50 -312 -143 -421 -300 -56 -81 -88 -157 -110 -262
-18 -85 -19 -157 -20 -1210 -1 -616 -5 -1133 -9 -1150 -7 -29 -8 -29 -10 10
-1 32 -3 36 -10 20 -5 -12 -8 465 -7 1135 3 1153 3 1155 25 1237 42 159 131
299 255 404 123 103 251 156 407 169 47 4 1388 6 2980 6 l2895 -1 87 -31z
m-17 -78 c96 -34 154 -66 218 -120 102 -86 201 -255 218 -371 5 -35 7 -537 3
-1200 -7 -1240 -4 -1180 -61 -1159 -19 6 -29 18 -34 41 -3 17 -9 532 -13 1145
-5 655 -11 1131 -17 1157 -16 72 -76 175 -141 241 -81 82 -209 145 -323 160
-55 7 -990 10 -2950 8 l-2870 -3 -72 -26 c-40 -15 -94 -39 -120 -55 -69 -40
-155 -133 -197 -214 -68 -128 -66 -89 -66 -1271 0 -587 -3 -1081 -6 -1098 -8
-40 -20 -39 -33 2 -9 29 -12 187 -27 1187 -9 654 -6 960 11 1045 35 180 168
364 338 467 34 21 67 38 72 38 6 0 28 10 50 23 l40 22 860 5 c473 3 1801 6
2950 5 l2090 0 80 -29z m-165 -126 c127 -18 284 -106 364 -203 42 -52 82 -137
90 -192 l6 -40 -15 46 c-14 43 -44 65 -41 30 1 -10 -6 -15 -18 -14 -10 0 -32
-13 -49 -30 -17 -17 -40 -31 -51 -32 -12 0 -22 -9 -26 -21 -3 -13 -12 -20 -23
-18 -9 1 -15 -2 -11 -7 3 -5 -2 -12 -11 -15 -9 -4 -14 -13 -11 -21 8 -19 -43
-73 -69 -73 -11 0 -27 -5 -35 -11 -12 -8 -10 -9 8 -4 13 4 22 2 22 -4 0 -10
-29 -16 -52 -12 -5 0 -8 -8 -8 -20 0 -16 -4 -19 -22 -14 -16 6 -20 4 -15 -8 4
-11 -3 -17 -25 -21 -17 -3 -28 -9 -24 -13 8 -8 -81 -52 -106 -52 -10 -1 -18
-9 -18 -18 0 -15 -2 -16 -10 -3 -7 12 -12 12 -22 2 -9 -9 -9 -12 3 -13 27 -2
-66 -18 -109 -18 -26 -1 -41 -5 -37 -11 3 -6 -5 -10 -19 -10 -14 0 -27 -4 -30
-9 -3 -5 -19 -8 -36 -7 -24 2 -30 -2 -31 -18 0 -20 -1 -20 -8 -2 -4 11 -10 15
-14 9 -6 -9 -26 -10 -86 -5 -16 2 -21 11 -24 45 -6 64 -11 -152 -8 -295 4
-137 1 -148 -57 -210 l-25 -27 -376 6 c-313 5 -379 8 -393 20 -32 29 -101 144
-92 153 6 6 163 11 369 12 l359 3 -3 105 c-1 58 -5 107 -8 110 -7 7 -131 6
-138 -2 -4 -3 3 -29 15 -56 12 -27 20 -63 18 -78 l-3 -29 -343 -3 c-206 -1
-359 2 -381 8 -36 9 -143 81 -149 100 -2 6 115 10 311 10 271 0 316 2 327 15
10 12 10 19 2 27 -14 14 -199 25 -457 27 -190 1 -201 2 -217 22 -26 31 -24
105 2 119 14 7 215 11 628 12 l607 2 -585 6 c-322 3 -593 10 -603 14 -27 13
-67 -2 -79 -29 -6 -14 -16 -25 -21 -25 -5 0 -2 11 7 25 18 28 21 39 6 30 -15
-9 -50 4 -50 20 0 7 -8 12 -17 10 -10 -1 -17 -9 -15 -16 2 -8 -5 -6 -18 6 -18
16 -23 17 -30 5 -8 -12 -10 -9 -10 10 0 20 -2 22 -10 10 -7 -10 -10 -11 -10
-2 0 8 -11 11 -35 8 -19 -3 -37 0 -40 4 -3 5 -23 7 -45 5 -22 -2 -42 0 -45 5
-3 5 -13 6 -22 3 -9 -4 -14 -2 -11 3 4 5 -24 11 -65 13 -40 2 -86 4 -103 5
-23 1 -30 5 -26 15 3 9 1 12 -6 7 -6 -4 -20 -2 -31 4 -11 5 -22 6 -25 1 -3 -5
-15 -11 -26 -14 -11 -3 -18 -1 -14 4 3 5 -13 9 -36 9 -25 0 -39 4 -35 10 4 6
-8 10 -27 10 -19 0 -39 5 -44 10 -6 6 -48 11 -95 11 -46 1 -102 4 -124 9 -23
4 129 9 360 11 l400 2 -490 8 c-269 5 -638 6 -820 4 -181 -2 -345 -1 -362 2
-32 5 -33 7 -33 52 0 26 5 52 12 59 9 9 74 12 228 12 225 1 250 5 250 45 0 10
-8 28 -17 39 -18 21 -18 21 5 2 19 -16 22 -17 22 -3 0 8 -19 32 -42 51 -24 20
-56 47 -73 61 l-30 26 30 -14 c17 -8 51 -35 78 -59 26 -25 50 -42 53 -39 4 3
3 -5 0 -19 -5 -16 4 -8 23 22 16 25 35 49 41 53 5 3 8 11 5 16 -3 5 0 7 7 4 7
-2 38 0 68 4 l55 9 -72 1 c-39 0 -75 -3 -78 -9 -3 -5 0 -10 7 -10 9 -1 8 -4
-3 -13 -9 -7 -21 -22 -28 -35 -12 -22 -13 -22 -86 38 -40 33 -84 62 -97 64
-18 3 -23 9 -21 29 1 18 -4 27 -20 31 -12 3 -18 8 -15 12 7 6 5 10 -37 59
l-26 30 14 -30 c14 -28 81 -144 130 -224 11 -19 16 -32 11 -28 -12 7 -90 134
-148 239 l-38 68 359 2 c1050 8 3183 7 3243 -2z m-5635 -145 c63 -28 121 -86
151 -150 34 -72 34 -177 -1 -246 -56 -110 -159 -171 -290 -172 -121 -2 -230
64 -281 170 -69 140 -3 311 150 389 92 48 179 51 271 9z m3028 -590 c398 -59
742 -221 1024 -482 77 -72 249 -278 299 -358 l18 -30 -21 18 c-16 14 -23 15
-29 6 -4 -8 -3 -10 4 -5 7 4 25 -20 47 -64 19 -38 38 -70 41 -70 3 0 4 7 0 15
-8 22 2 18 15 -6 8 -15 8 -19 0 -15 -16 10 -13 -5 10 -53 23 -48 19 -69 -5
-24 -23 42 -19 22 8 -38 27 -62 66 -210 66 -248 -1 -26 -1 -26 -15 4 -7 17
-14 23 -14 14 -1 -19 -132 -61 -175 -55 -39 4 -46 16 -91 146 -37 109 -37 111
-23 163 11 39 21 55 42 65 21 11 25 18 20 35 -17 59 -150 266 -226 351 -39 46
-199 182 -184 158 12 -20 -4 -14 -36 13 -16 14 -35 22 -40 19 -7 -4 -8 -2 -4
4 4 7 -12 25 -39 44 -66 47 -105 71 -105 65 0 -3 22 -19 49 -37 27 -17 55 -38
62 -47 8 -8 -26 11 -75 42 -148 97 -371 186 -561 224 -389 78 -769 29 -1140
-148 -217 -103 -399 -247 -543 -428 -36 -46 -67 -83 -70 -83 -16 0 152 205
228 277 25 24 97 80 160 125 127 89 156 114 95 78 -213 -125 -304 -212 -511
-486 -105 -140 -124 -161 -148 -162 -5 0 -13 -6 -17 -14 -13 -20 -11 6 3 39 6
15 11 31 10 35 -2 9 64 123 96 165 13 18 22 36 19 40 -3 4 11 26 30 48 20 22
30 31 22 20 -7 -11 -22 -30 -33 -42 -11 -13 -17 -23 -14 -23 4 0 45 47 92 104
47 57 93 111 102 120 8 9 12 16 7 16 -17 1 106 104 192 161 234 155 547 277
790 308 120 15 455 13 568 -4z m-1385 -34 c32 -17 31 -89 0 -118 -22 -20 -34
-21 -332 -22 -324 -2 -340 -4 -334 -45 3 -21 8 -21 326 -26 l322 -5 -67 -50
-68 -50 -362 0 c-199 0 -365 3 -368 7 -4 4 0 29 9 55 39 111 41 100 -24 107
-32 4 -69 2 -83 -3 -27 -10 -27 -11 -27 -121 l0 -110 93 -2 c50 -1 99 -2 107
-4 8 -1 140 -2 293 -3 l277 -1 -61 -74 c-33 -41 -68 -77 -77 -81 -9 -4 -175
-9 -367 -12 -390 -7 -397 -6 -432 60 -15 28 -18 61 -17 258 0 124 3 230 6 235
10 14 1159 20 1186 5z m-1345 -187 c-18 -8 -33 -16 -33 -19 0 -8 44 -69 52
-73 4 -2 0 -14 -8 -28 l-16 -24 -293 0 c-161 0 -307 3 -324 6 -30 6 -31 8 -29
53 l1 46 4 -42 c2 -24 8 -43 13 -43 12 0 20 28 14 45 -5 11 1 15 25 15 17 0
31 5 31 11 0 5 -4 7 -10 4 -5 -3 -10 -2 -10 4 0 6 -16 13 -36 17 -26 5 -33 9
-24 18 7 7 110 13 313 17 166 3 316 6 332 6 l30 1 -32 -14z m5567 -4 c18 -18
20 -31 18 -83 l-3 -62 -305 -6 c-168 -4 -322 -10 -342 -14 -58 -11 -104 9
-118 51 -13 39 -6 99 13 111 7 4 113 10 237 13 124 3 282 6 352 8 118 2 129 1
148 -18z m-3072 -67 c-15 -2 -42 -2 -60 0 -18 2 -6 4 27 4 33 0 48 -2 33 -4z
m-181 -9 c-3 -3 -12 -4 -19 -1 -8 3 -5 6 6 6 11 1 17 -2 13 -5z m473 -43 c138
-33 138 -33 115 -22 -16 8 -17 10 -3 10 37 2 288 -98 288 -115 0 -2 -9 0 -21
6 -11 7 -22 10 -25 8 -2 -2 22 -16 52 -31 31 -15 52 -23 49 -16 -11 17 44 -14
111 -64 92 -67 187 -161 251 -245 85 -111 90 -121 48 -82 -38 35 -38 35 9 -25
52 -68 62 -97 15 -45 -35 39 -35 40 46 -85 101 -155 172 -345 199 -530 16
-110 23 -541 19 -1199 -3 -342 -5 -378 -19 -372 -14 6 -15 -6 -7 -111 12 -172
6 -306 -17 -398 -37 -148 -142 -321 -261 -430 -24 -22 -38 -33 -31 -25 16 18
16 33 0 24 -7 -5 8 21 34 56 71 98 178 284 210 367 21 54 31 101 36 171 7 97
-3 1890 -11 1947 -3 17 -5 39 -6 50 -1 16 -3 17 -11 5 -6 -10 -9 -6 -8 15 0
17 -9 50 -21 75 -20 41 -23 33 -6 -15 6 -18 5 -18 -5 -3 -6 10 -17 37 -24 61
-14 47 -101 179 -178 269 -27 32 -47 62 -44 67 3 4 -4 17 -17 27 l-22 19 20
-25 c11 -14 -9 3 -45 36 -90 84 -193 150 -346 219 -204 92 -275 112 -479 136
-130 15 -452 6 -565 -16 -96 -19 -205 -47 -267 -69 -56 -20 -304 -142 -345
-170 -18 -12 -38 -25 -45 -29 -16 -10 -10 20 7 36 12 10 12 9 1 -5 -8 -11 -9
-18 -3 -18 12 0 25 18 28 38 3 17 -3 15 -42 -14 -18 -14 -31 -31 -27 -37 3 -5
2 -7 -4 -4 -13 8 -48 -17 -48 -35 -1 -7 -6 -12 -12 -11 -15 3 -140 -130 -209
-223 -30 -38 -67 -99 -83 -135 -63 -139 -61 -106 -61 -1016 0 -603 -3 -832
-11 -840 -7 -7 -16 -74 -21 -153 -14 -225 13 -349 117 -527 32 -54 60 -102 63
-107 3 -5 -1 -5 -9 0 -8 4 -4 -5 9 -21 111 -145 134 -183 67 -110 -70 75 -179
223 -210 283 -49 99 -67 193 -67 342 0 74 5 167 10 205 6 43 6 155 0 295 -5
124 -7 504 -5 845 5 651 5 656 52 790 31 88 105 227 190 355 239 360 583 570
1040 635 144 21 441 13 555 -14z m895 -262 c59 -62 59 -62 -20 11 -111 103
-126 118 -80 82 22 -17 67 -59 100 -93z m-3572 0 c23 -12 69 -40 101 -62 l59
-40 -25 -13 c-13 -7 -161 -68 -329 -135 -167 -67 -311 -128 -319 -136 -13 -12
-6 -22 59 -81 96 -87 148 -122 182 -122 15 0 80 21 146 46 261 102 587 214
616 214 7 -1 1 -7 -13 -15 -16 -9 -20 -15 -10 -15 10 -1 11 -3 2 -7 -6 -2 -10
-9 -7 -14 4 -5 -1 -6 -9 -3 -11 4 -16 0 -16 -10 0 -10 -7 -16 -16 -14 -10 2
-19 -3 -22 -11 -3 -10 0 -11 9 -5 12 6 12 5 1 -8 -8 -10 -20 -14 -30 -11 -14
6 -15 4 -5 -9 7 -8 9 -18 5 -23 -4 -4 9 -4 28 0 77 16 11 -9 -246 -94 -290
-96 -551 -200 -571 -228 -8 -10 -13 -49 -13 -99 l0 -83 -97 -54 c-196 -109
-222 -122 -229 -114 -4 4 -9 207 -10 451 l-3 444 52 22 c65 28 649 249 660
250 4 0 27 -10 50 -21z m4874 -24 c65 -26 181 -70 258 -100 77 -29 177 -68
223 -85 l82 -31 0 -465 c0 -255 -3 -464 -6 -464 -3 0 -81 39 -175 86 l-169 87
0 102 c0 97 -1 104 -23 118 -85 56 -648 247 -863 292 l-80 18 -32 78 c-32 78
-39 109 -24 109 40 0 216 -57 452 -145 381 -143 481 -177 507 -170 20 5 183
171 183 187 0 4 -12 14 -27 22 -51 25 -538 224 -596 243 -31 10 -57 20 -56 23
0 14 184 140 204 140 13 0 77 -20 142 -45z m-1226 -62 c13 -16 12 -17 -3 -4
-10 7 -18 15 -18 17 0 8 8 3 21 -13z m761 -9 c20 -15 24 -24 16 -32 -12 -12
-14 -12 142 -68 162 -59 560 -218 560 -224 -1 -3 -27 -33 -58 -67 l-57 -62
-180 68 c-99 38 -279 108 -399 155 -183 73 -237 90 -330 104 -76 12 -111 21
-111 31 0 7 -13 27 -30 44 -16 17 -22 25 -12 17 17 -12 18 -11 12 13 -6 23 -4
27 16 28 18 1 15 4 -11 9 -19 4 66 7 190 6 213 -1 227 -2 252 -22z m-1972 -25
l-35 -31 48 27 c27 15 50 25 52 23 2 -2 -22 -25 -53 -51 -31 -26 -86 -72 -122
-103 -105 -90 -306 -196 -530 -280 -63 -23 -142 -54 -175 -68 -33 -14 -67 -26
-75 -26 -8 0 84 43 205 95 120 52 224 100 230 107 7 8 5 9 -7 5 -35 -12 -17 3
34 29 73 37 194 118 328 218 115 85 165 114 100 55z m-290 -15 c-25 -15 -76
-40 -115 -57 -81 -34 -465 -168 -465 -162 0 7 58 31 179 75 57 22 107 43 110
48 6 10 75 46 116 62 47 18 25 0 -42 -34 -38 -19 -65 -35 -62 -36 10 0 123 47
209 88 96 46 138 55 70 16z m310 -84 c-52 -50 -99 -90 -105 -90 -5 0 -3 6 5
14 8 7 52 47 98 90 46 42 86 76 90 76 4 -1 -36 -41 -88 -90z m264 59 l-19 -22
33 17 c17 9 32 14 32 10 0 -4 7 -1 15 6 9 7 18 10 22 7 10 -11 -249 -266 -342
-337 -103 -79 -278 -186 -439 -271 -119 -62 -363 -162 -377 -154 -4 3 -10 1
-14 -5 -3 -5 -15 -10 -27 -10 -11 0 -50 -9 -86 -20 -132 -39 -412 -62 -497
-40 -16 4 -23 8 -15 9 138 12 531 93 657 137 126 43 407 189 558 289 77 51
185 133 240 182 145 129 269 232 274 227 2 -2 -4 -14 -15 -25z m-394 7 c0 -3
-15 -14 -32 -26 l-33 -22 30 26 c31 27 35 29 35 22z m159 -77 c-46 -44 -93
-85 -104 -91 -11 -6 -18 -9 -15 -6 116 108 193 178 197 178 3 0 -32 -36 -78
-81z m-2152 58 c16 -4 105 -87 93 -87 -10 0 -211 -76 -510 -192 -228 -89 -202
-87 -273 -19 l-60 58 91 36 c103 41 289 110 472 173 113 40 135 43 187 31z
m2514 -16 c-11 -20 -232 -230 -291 -276 -19 -16 39 45 130 133 91 89 166 161
168 161 1 1 -2 -8 -7 -18z m13 -71 c-98 -180 -336 -386 -564 -486 -241 -106
-556 -219 -683 -244 -110 -22 -167 -25 -97 -5 128 36 300 103 425 164 201 99
450 235 509 279 28 20 54 37 58 37 15 0 187 149 283 245 55 55 101 96 103 90
2 -5 -14 -41 -34 -80z m1746 80 c8 -5 11 -10 5 -10 -5 0 -17 5 -25 10 -8 5
-10 10 -5 10 6 0 17 -5 25 -10z m-2385 -10 c-3 -5 -16 -15 -28 -21 -19 -9 -19
-8 3 10 28 23 34 26 25 11z m210 -19 c-68 -60 -96 -83 -101 -78 -6 5 92 87
104 87 3 0 2 -4 -3 -9z m225 -127 c-130 -130 -236 -217 -342 -280 -92 -54
-268 -147 -268 -141 0 3 48 31 107 62 219 117 361 224 532 399 46 47 86 86 90
86 3 0 -50 -57 -119 -126z m-149 47 c-73 -82 -120 -126 -184 -170 -70 -48 -57
-31 26 32 40 30 103 90 140 131 38 42 71 76 74 76 3 0 -22 -31 -56 -69z m559
35 c0 -20 -65 -180 -114 -280 -51 -105 -77 -146 -131 -204 -113 -122 -326
-249 -540 -321 -49 -17 -92 -31 -95 -31 -3 0 58 32 135 71 151 78 370 219 452
293 48 44 130 152 121 162 -2 2 -25 -25 -51 -60 -45 -61 -94 -107 -167 -155
-26 -17 -21 -12 15 21 97 87 110 100 95 92 -8 -4 -40 -29 -70 -55 -169 -144
-529 -329 -784 -403 -172 -50 -580 -106 -562 -77 4 6 20 11 35 11 121 0 468
100 701 202 289 127 461 234 662 410 71 62 211 229 248 296 14 25 28 38 36 35
8 -3 14 -6 14 -7z m-1189 -42 c-57 -24 -106 -43 -108 -41 -5 6 178 86 197 86
8 0 -32 -20 -89 -45z m1096 -31 c-25 -37 -41 -56 -139 -160 -83 -89 -65 -59
24 40 46 50 94 109 107 130 13 21 26 36 29 33 3 -3 -7 -23 -21 -43z m-185 -90
c-17 -21 -52 -58 -78 -83 -28 -27 -18 -12 27 37 79 88 100 107 51 46z m-2043
6 c57 -12 91 -45 90 -88 0 -24 -1 -24 -10 -6 -7 15 -8 7 -5 -30 2 -27 0 -59
-4 -70 -6 -15 -9 -7 -11 30 l-1 50 -9 -60 c-12 -82 -45 -159 -74 -175 -21 -11
-31 -10 -64 5 -22 10 -51 15 -65 13 -23 -5 -25 -3 -20 21 19 82 36 142 49 174
19 46 19 60 0 27 -17 -30 -20 -21 -4 14 7 14 17 23 22 19 6 -4 8 0 5 9 -7 17
26 78 41 78 6 0 33 -5 60 -11z m1401 7 c0 -2 -7 -7 -16 -10 -8 -3 -12 -2 -9 4
6 10 25 14 25 6z m2400 -6 c8 -5 11 -10 5 -10 -5 0 -17 5 -25 10 -8 5 -10 10
-5 10 6 0 17 -5 25 -10z m-1534 -104 c-24 -53 -47 -96 -50 -96 -3 0 11 35 31
78 19 42 39 88 44 101 5 13 12 21 15 18 3 -2 -15 -48 -40 -101z m-206 70 c0
-2 -8 -10 -17 -17 -16 -13 -17 -12 -4 4 13 16 21 21 21 13z m1930 -36 c8 -5
11 -10 5 -10 -5 0 -17 5 -25 10 -8 5 -10 10 -5 10 6 0 17 -5 25 -10z m-1565
-114 c-10 -39 -25 -87 -35 -106 -9 -19 -15 -42 -13 -50 4 -13 3 -13 -6 0 -8
11 -11 11 -11 2 0 -22 -65 -116 -131 -189 -113 -125 -244 -225 -391 -299 -80
-40 -248 -107 -254 -101 -2 2 34 18 81 36 193 75 425 228 547 360 35 38 83
102 107 144 44 78 110 252 112 297 l2 25 4 -24 c3 -14 -3 -56 -12 -95z m-2328
17 c-3 -10 -5 -2 -5 17 0 19 2 27 5 18 2 -10 2 -26 0 -35z m2451 -33 c0 -9 -3
-7 -8 5 -5 11 -8 29 -8 40 0 16 2 15 8 -5 4 -14 8 -32 8 -40z m-548 47 c0 -2
-10 -12 -22 -23 l-23 -19 19 23 c18 21 26 27 26 19z m1662 -42 c56 -15 145
-40 198 -57 114 -36 402 -146 411 -156 4 -4 10 -42 13 -86 7 -73 6 -78 -11
-71 -10 4 -121 43 -248 87 -204 70 -236 79 -283 74 -29 -2 -67 -14 -86 -25
l-33 -21 -59 24 c-32 13 -78 27 -100 31 -41 6 -42 7 -52 63 -23 120 -25 153
-11 150 7 -2 14 3 15 10 1 6 2 13 3 15 3 9 154 -15 243 -38z m-1782 22 c0 -2
-10 -12 -22 -23 l-23 -19 19 23 c18 21 26 27 26 19z m-1801 -66 c-7 -23 -14
-39 -16 -37 -3 2 1 23 8 45 7 23 14 39 16 37 3 -2 -1 -23 -8 -45z m2437 41 c6
-4 31 -88 54 -187 24 -99 51 -202 60 -230 9 -27 15 -56 12 -64 -3 -8 0 -11 7
-7 7 5 9 1 5 -8 -4 -9 18 -56 50 -112 69 -117 106 -236 106 -336 0 -65 -1 -69
-20 -63 -16 5 -23 0 -33 -24 l-13 -31 -12 35 c-24 65 -133 105 -287 105 -219
0 -396 -103 -508 -295 -80 -136 -51 -138 54 -5 l64 81 13 -93 c7 -51 17 -96
21 -101 4 -4 4 16 0 45 -20 139 -9 183 53 223 l27 17 -9 -34 c-18 -59 -12
-140 13 -188 30 -59 64 -82 132 -88 46 -4 61 -1 90 19 55 37 79 96 73 180 -4
55 -12 80 -36 118 -30 49 -30 49 -9 55 80 21 174 -8 225 -70 40 -48 41 -82 5
-170 -34 -87 -81 -135 -179 -181 -71 -34 -87 -38 -154 -37 -95 1 -167 26 -265
93 -41 28 -85 50 -97 50 -21 -1 -21 -2 -3 -6 11 -3 56 -33 100 -66 96 -72 120
-83 210 -95 85 -11 157 2 270 49 94 40 156 95 203 184 71 131 67 145 71 -226
2 -231 0 -329 -8 -325 -6 4 -14 -11 -21 -36 -15 -66 -70 -167 -101 -190 -16
-12 -26 -25 -23 -30 3 -5 1 -7 -3 -6 -5 2 -52 -37 -104 -86 -52 -49 -87 -86
-79 -82 35 17 -60 -58 -107 -85 -29 -17 -53 -33 -53 -36 0 -3 21 7 48 22 33
19 40 21 22 6 -42 -34 -159 -93 -172 -85 -7 4 -8 3 -4 -4 4 -7 -19 -24 -61
-46 -37 -18 -162 -86 -277 -150 -115 -63 -224 -120 -242 -126 -29 -10 -42 -6
-131 37 -132 65 -607 309 -663 341 -78 45 -300 184 -300 188 0 7 72 -32 129
-70 30 -20 61 -34 68 -32 9 4 11 1 7 -5 -4 -7 -1 -10 7 -7 18 7 51 -10 44 -22
-3 -5 22 -23 56 -40 33 -17 58 -26 53 -19 -5 9 -2 10 9 6 37 -14 13 4 -65 48
-46 26 -111 67 -146 91 -68 48 -82 54 -61 27 13 -16 12 -17 -3 -4 -10 7 -15
17 -13 22 3 4 -13 22 -35 41 -55 43 -142 159 -177 233 l-28 60 -5 335 c-3 184
-9 343 -14 353 -5 11 -4 17 5 17 8 0 4 9 -9 23 -12 13 -22 29 -22 36 0 16 76
-76 140 -169 57 -82 45 -71 -40 38 -30 39 -57 69 -59 67 -2 -2 7 -17 20 -33
13 -17 50 -66 82 -110 32 -44 68 -89 79 -99 11 -10 24 -28 29 -41 10 -25 110
-77 169 -87 62 -10 175 -18 169 -12 -3 4 -38 11 -78 17 -70 10 -210 65 -225
88 -3 5 24 -5 61 -23 88 -43 192 -60 276 -44 78 14 121 36 188 97 30 27 68 56
84 65 28 15 29 16 6 17 -14 0 -43 -18 -74 -46 -102 -92 -210 -125 -321 -100
-155 36 -254 120 -296 249 -35 110 52 196 203 202 26 1 47 1 47 -1 0 -1 -12
-26 -26 -54 -21 -42 -26 -66 -26 -125 1 -121 37 -174 137 -196 48 -11 57 -10
87 7 70 41 106 191 64 272 -20 38 -14 39 39 9 l40 -23 -3 -74 c-2 -41 -7 -93
-12 -115 -5 -22 -7 -41 -5 -43 9 -9 35 107 35 157 l1 56 69 -74 c39 -40 73
-84 76 -97 6 -24 18 -31 28 -16 7 11 -66 160 -103 210 -41 55 -104 95 -200
126 -135 45 -218 59 -311 54 -85 -5 -85 -5 -40 9 63 20 175 11 289 -22 52 -16
96 -24 100 -19 8 12 61 17 61 5 0 -12 33 -9 43 4 4 6 10 5 16 -4 9 -15 48 -12
206 16 63 11 84 18 70 23 -23 9 -19 11 60 31 52 12 101 35 58 26 -13 -3 -23
-4 -23 -2 0 4 68 46 90 57 12 5 11 7 -5 7 -27 1 -9 15 50 36 28 9 55 23 60 29
6 6 34 22 63 35 28 14 52 27 52 30 0 3 26 20 58 36 31 17 64 36 72 43 8 7 51
39 95 71 116 84 243 218 286 304 11 20 22 37 24 37 3 0 -1 -13 -10 -30 -8 -16
-15 -32 -15 -37 0 -18 30 39 64 122 33 80 37 82 21 10 -3 -11 6 3 19 30 17 34
25 44 26 30 2 -14 5 -10 12 13 11 33 16 37 34 24z m1309 -12 c13 -5 14 -9 5
-9 -8 0 -24 4 -35 9 -13 5 -14 9 -5 9 8 0 24 -4 35 -9z m-4313 -14 c-19 -6
-38 -20 -44 -29 -8 -15 -12 -16 -26 -5 -12 9 -12 7 2 -9 15 -18 16 -26 7 -37
-10 -11 -7 -18 11 -31 21 -15 21 -16 3 -11 -16 5 -21 1 -22 -16 -2 -18 0 -19
7 -8 7 11 9 10 7 -8 -1 -17 -6 -21 -22 -17 -11 3 -3 -4 18 -15 47 -26 48 -34
2 -14 -61 25 -117 18 -258 -35 -303 -111 -283 -110 -293 -24 l-6 50 108 45
c93 39 357 131 474 166 49 14 72 13 32 -2z m2428 10 c0 -6 -106 -87 -145 -111
-46 -29 -26 -11 61 55 81 61 84 63 84 56z m291 -19 c-10 -9 -11 -8 -5 6 3 10
9 15 12 12 3 -3 0 -11 -7 -18z m1689 -8 c27 -15 -11 -10 -45 6 l-30 14 30 -6
c17 -3 37 -9 45 -14z m-1740 -8 c0 -12 -92 -123 -97 -117 -4 4 88 126 95 126
1 0 2 -4 2 -9z m1835 -27 c24 -11 25 -13 5 -8 -14 4 -38 13 -55 20 -24 11 -25
13 -5 8 14 -4 39 -13 55 -20z m-1419 -105 c9 -52 31 -138 48 -191 17 -54 30
-98 28 -98 -20 0 -102 302 -102 375 0 39 11 4 26 -86z m-436 47 c0 -2 -8 -10
-17 -17 -16 -13 -17 -12 -4 4 13 16 21 21 21 13z m30 -10 c0 -2 -8 -10 -17
-17 -16 -13 -17 -12 -4 4 13 16 21 21 21 13z m2070 -16 c18 -12 2 -12 -25 0
-13 6 -15 9 -5 9 8 0 22 -4 30 -9z m-2190 -13 c0 -2 -12 -14 -27 -28 l-28 -24
24 28 c23 25 31 32 31 24z m-70 -63 c-8 -8 -23 -20 -34 -25 -13 -7 -9 -1 9 15
34 29 43 33 25 10z m-390 0 c0 -6 -264 -134 -276 -134 -5 1 54 32 131 70 162
79 145 71 145 64z m460 3 c0 -2 -10 -12 -22 -23 l-23 -19 19 23 c18 21 26 27
26 19z m-640 -27 c-19 -11 -39 -19 -45 -19 -5 0 6 8 25 19 19 11 40 19 45 19
6 0 -6 -8 -25 -19z m2119 -42 c35 -13 71 -37 96 -62 84 -87 99 -113 141 -243
42 -128 53 -242 54 -591 l1 -224 -73 -42 c-40 -23 -124 -73 -187 -110 -124
-73 -171 -99 -171 -93 0 2 94 60 210 128 l210 124 0 63 c0 34 -2 62 -5 62 -2
0 -15 -11 -29 -25 -14 -14 -32 -25 -41 -25 -24 0 -166 -74 -218 -114 -43 -33
-65 -38 -35 -8 20 20 -1 14 -50 -15 -25 -15 -42 -21 -38 -14 14 23 -95 -43
-132 -80 -41 -41 -81 -58 -84 -37 0 7 -4 -9 -8 -37 -4 -27 -8 238 -9 590 0
352 -4 656 -6 675 -8 55 12 71 112 91 103 21 180 17 262 -13z m371 -7 c303
-78 594 -210 1080 -493 125 -72 146 -88 151 -113 4 -17 7 -288 8 -602 l1 -573
265 0 265 0 0 -112 0 -113 -365 3 -365 2 7 513 c3 281 2 574 -2 650 l-7 138
-72 48 c-274 184 -706 410 -1011 531 -134 53 -186 101 -137 129 27 16 100 13
182 -8z m-3923 -5 c4 -4 8 -330 9 -724 1 -394 -1 -690 -2 -657 -6 89 -13 125
-27 125 -17 0 -222 139 -330 223 -83 65 -112 82 -87 52 7 -8 10 -15 6 -15 -11
0 -50 25 -62 39 -9 11 -12 11 -18 -4 -6 -16 -13 -12 -53 29 l-46 48 7 192 c7
202 15 275 42 366 9 30 17 68 17 83 0 16 3 24 7 18 3 -6 16 13 29 43 29 71 90
139 143 161 66 27 343 43 365 21z m-827 -47 c-11 -8 -8 -9 15 -4 l30 6 -30
-20 c-16 -11 -42 -23 -58 -27 -16 -3 -31 -12 -34 -20 -3 -8 -11 -14 -19 -14
-8 0 -14 -9 -14 -20 0 -10 -10 -29 -22 -40 l-23 -21 25 9 c14 5 25 15 25 22 0
7 7 15 15 17 13 4 13 3 0 -7 -13 -10 -12 -11 5 -7 11 3 29 8 40 12 11 4 -61
-37 -160 -90 -348 -187 -680 -386 -722 -432 l-23 -24 0 -645 0 -644 -347 0
-348 0 3 110 3 109 247 -2 247 -2 3 596 c2 475 5 599 15 607 7 6 96 58 198
115 101 58 220 126 264 151 44 26 152 83 240 127 128 64 186 86 290 113 149
38 155 40 135 25z m2140 -19 c-8 -5 -19 -10 -25 -10 -5 0 -3 5 5 10 8 5 20 10
25 10 6 0 3 -5 -5 -10z m2695 -178 c39 -13 92 -35 119 -49 26 -13 45 -19 40
-12 -4 7 19 -3 52 -21 32 -18 116 -64 186 -101 114 -61 381 -221 480 -287 35
-23 38 -28 38 -73 0 -27 -3 -49 -6 -49 -14 0 -266 135 -344 185 -47 29 -139
86 -205 126 -135 82 -166 105 -85 63 62 -32 90 -45 90 -40 0 10 -291 166 -300
161 -5 -3 -10 -1 -10 5 0 6 -4 9 -8 6 -8 -5 -172 69 -172 78 0 3 8 2 17 -1 17
-7 17 -5 0 20 l-18 28 28 -7 c15 -4 60 -18 98 -32z m-1245 -46 c0 -6 -7 -2
-15 8 -8 11 -15 25 -15 30 0 6 7 2 15 -8 8 -11 15 -25 15 -30z m14 -32 c3 -8
2 -12 -4 -9 -6 3 -10 10 -10 16 0 14 7 11 14 -7z m36 -79 c0 -5 -5 -3 -10 5
-5 8 -10 20 -10 25 0 6 5 3 10 -5 5 -8 10 -19 10 -25z m1385 -105 c88 -44 248
-129 355 -190 107 -60 232 -126 278 -147 l82 -37 0 -1150 0 -1149 -61 7 c-34
3 -305 6 -602 6 -297 0 -538 2 -536 4 3 3 51 6 107 7 57 1 105 6 108 10 2 5
11 6 18 3 8 -3 17 0 22 7 4 7 3 10 -3 6 -6 -4 -16 -1 -22 7 -13 15 -4 49 12
43 5 -1 22 10 38 26 16 15 33 26 39 22 5 -3 10 -2 10 4 0 5 -6 11 -12 14 -7 2
-5 3 4 2 9 -2 32 1 50 5 24 6 7 9 -67 11 -55 1 -108 1 -118 1 -10 -1 -15 3
-12 8 4 6 127 10 334 10 180 0 361 3 402 6 l74 7 -2 989 c-1 544 -5 993 -8
999 -8 13 -241 149 -515 301 -124 69 -237 137 -252 151 -20 18 -28 36 -28 59
0 18 -4 47 -9 64 l-9 30 82 -28 c44 -16 153 -64 241 -108z m-1365 31 c0 -45
-6 -37 -14 19 -4 31 -3 40 4 30 5 -8 10 -30 10 -49z m-4000 39 c-8 -5 -19 -10
-25 -10 -5 0 -3 5 5 10 8 5 20 10 25 10 6 0 3 -5 -5 -10z m2637 -16 c-3 -3
-12 -4 -19 -1 -8 3 -5 6 6 6 11 1 17 -2 13 -5z m-2379 -36 c-32 -17 -55 -34
-53 -39 3 -4 -8 -16 -25 -25 -34 -21 -45 -41 -30 -59 5 -6 7 -15 3 -18 -3 -4
1 -9 10 -13 15 -5 14 -9 -6 -26 -12 -10 19 1 68 27 50 25 81 38 70 29 -22 -17
-333 -196 -490 -281 -55 -30 -109 -65 -120 -77 -20 -21 -20 -31 -15 -1011 l5
-990 300 -5 c275 -5 285 -6 120 -9 -99 -2 -202 -4 -230 -3 -27 0 -44 -2 -37
-5 6 -2 9 -9 6 -14 -3 -6 6 -19 20 -30 14 -11 26 -27 26 -35 0 -8 4 -13 9 -10
11 7 53 -29 44 -38 -3 -3 -1 -6 5 -6 6 0 23 -5 39 -12 29 -12 48 -13 233 -19
63 -2 -78 -6 -315 -9 -236 -3 -431 -4 -433 -4 -2 1 -4 513 -5 1138 -2 996 0
1136 13 1131 8 -4 11 -3 7 1 -4 4 30 27 76 52 45 24 163 88 262 142 210 114
476 250 490 250 6 -1 -16 -15 -47 -32z m2339 26 c-3 -3 -12 -4 -19 -1 -8 3 -5
6 6 6 11 1 17 -2 13 -5z m-2742 -50 c-18 -13 -17 -14 15 -8 l35 6 -33 -23
c-19 -13 -54 -41 -79 -61 -24 -21 -48 -38 -53 -38 -12 0 -142 -79 -167 -103
-12 -11 -20 -24 -17 -28 5 -8 -81 -69 -98 -69 -4 0 -7 24 -7 53 1 43 6 56 23
67 102 65 249 150 253 147 2 -3 -21 -19 -52 -36 -57 -33 -77 -53 -25 -26 17 9
36 13 42 9 7 -4 8 -3 4 4 -7 12 49 46 63 38 11 -7 52 24 46 35 -3 5 9 18 27
29 39 23 52 26 23 4z m-55 -39 c0 -2 -10 -10 -22 -16 -21 -11 -22 -11 -9 4 13
16 31 23 31 12z m2257 -31 c-3 -3 -12 -4 -19 -1 -8 3 -5 6 6 6 11 1 17 -2 13
-5z m3953 -81 c0 -7 -39 17 -46 28 -3 6 5 3 20 -6 14 -10 26 -19 26 -22z
m-431 -210 c124 -63 232 -119 239 -125 14 -12 15 -37 2 -58 -8 -12 -13 -13
-29 -3 -11 7 -100 53 -198 103 -98 50 -196 104 -218 121 -22 16 -53 35 -68 41
-15 5 -26 12 -24 15 7 6 136 -45 167 -67 15 -11 31 -20 35 -20 13 0 -37 36
-97 70 -56 31 -86 56 -52 43 9 -3 118 -58 243 -120z m-339 15 c89 -35 302
-130 452 -200 l108 -51 2 -899 c2 -495 1 -901 -2 -903 -12 -7 -570 9 -570 17
0 4 9 8 21 8 12 0 23 8 26 20 3 11 12 20 19 20 8 0 14 5 14 11 0 6 6 9 14 6 9
-4 12 2 11 18 -2 16 3 25 16 28 21 6 26 42 7 50 -7 3 14 6 48 6 34 1 96 4 138
7 l77 7 -3 729 -3 730 -27 22 c-15 11 -125 72 -245 134 -120 62 -228 121 -240
131 -15 13 -24 35 -29 72 -4 38 -3 51 4 44 6 -5 12 -23 15 -40 2 -19 5 -10 6
23 l1 54 33 -7 c17 -4 66 -21 107 -37z m-5434 -123 c-3 -19 -36 -44 -58 -45
-10 0 -18 -4 -18 -10 0 -5 7 -6 17 -3 11 4 14 3 9 -5 -4 -7 -14 -12 -22 -12
-13 0 -15 4 -18 30 -1 9 70 59 86 60 3 0 5 -7 4 -15z m162 -58 c-60 -28 -108
-55 -108 -60 0 -5 7 -4 15 3 8 7 16 10 16 6 3 -11 6 -21 12 -36 3 -8 7 -26 9
-40 2 -16 11 -26 28 -30 24 -6 24 -6 5 -18 -11 -6 -16 -12 -11 -12 5 0 91 40
192 89 101 49 184 88 184 85 0 -2 -90 -49 -200 -104 l-200 -100 2 -733 3 -732
95 -6 c105 -6 108 -10 10 -18 -20 -2 -27 -5 -17 -8 15 -4 16 -7 6 -20 -10 -12
-10 -16 2 -24 23 -15 34 -10 13 6 -10 8 -14 15 -8 15 14 0 60 -40 57 -50 -1
-4 7 -6 17 -3 11 3 20 0 20 -6 0 -6 10 -16 23 -21 20 -8 20 -9 2 -10 -17 0
-17 -2 -5 -10 8 -5 26 -10 40 -10 15 0 21 -3 14 -10 -5 -5 -105 -10 -227 -12
l-217 -3 0 898 c0 659 3 897 11 897 13 0 180 69 254 105 28 13 55 24 60 23 6
0 -38 -23 -97 -51z m1767 3 c21 -22 37 -40 34 -40 -3 0 -23 18 -44 40 -21 22
-37 40 -34 40 3 0 23 -18 44 -40z m2795 -345 c0 -2 -18 -14 -40 -25 -22 -11
-40 -18 -40 -15 0 2 17 13 38 24 42 23 42 23 42 16z m192 -30 c9 10 186 -183
237 -258 138 -205 187 -375 146 -509 -40 -134 -147 -299 -245 -377 l-45 -36
48 54 c98 111 159 244 178 388 17 124 1 205 -62 330 -27 54 -49 104 -49 111 0
7 -5 10 -12 6 -7 -4 -8 -3 -4 4 4 7 -34 63 -91 134 -152 189 -150 185 -127
165 11 -9 23 -15 26 -12z m-3904 -2 c-184 -220 -245 -303 -290 -401 -33 -73
-58 -170 -58 -229 0 -71 29 -185 67 -263 49 -100 49 -99 25 -70 -24 28 -27 24
-12 -17 l10 -28 -25 30 c-14 17 -23 36 -20 43 3 7 0 10 -5 7 -13 -8 -54 82
-75 166 -35 134 -9 280 75 424 56 94 96 143 215 257 95 93 126 119 93 81z
m4688 -147 c64 -140 42 -305 -55 -426 -28 -35 -26 -26 16 71 47 110 53 184 24
299 -32 127 -27 147 15 56z m-98 -63 c25 -54 27 -67 27 -193 -1 -124 -3 -140
-28 -200 -15 -36 -50 -99 -78 -140 -57 -84 -58 -83 -12 7 37 70 78 202 88 283
6 50 1 109 -24 253 -4 26 -6 47 -4 47 2 0 16 -26 31 -57z m-81 -85 c-3 -7 -5
-2 -5 12 0 14 2 19 5 13 2 -7 2 -19 0 -25z m-756 -163 c16 -116 -7 -290 -56
-416 -39 -100 -113 -208 -205 -300 -116 -117 -158 -143 -379 -236 -10 -5 -12
-2 -6 7 6 10 4 12 -8 7 -39 -15 -12 5 46 34 34 17 82 45 107 62 58 40 251 227
248 241 -1 6 13 33 32 60 53 74 63 84 45 49 -8 -18 -30 -50 -47 -70 l-32 -38
33 30 c103 95 184 352 185 593 1 125 2 131 14 90 7 -23 17 -74 23 -113z m766
93 c-2 -13 -4 -5 -4 17 -1 22 1 32 4 23 2 -10 2 -28 0 -40z m-5206 -101 c9
-34 31 -100 48 -146 17 -46 29 -86 26 -89 -14 -14 -104 240 -105 297 0 28 14
0 31 -62z m858 -211 c27 -133 81 -242 176 -348 126 -142 189 -206 163 -168
l-23 35 53 -44 c57 -49 67 -62 25 -37 l-28 17 24 -20 c12 -12 27 -18 33 -15 5
3 22 -5 36 -18 15 -14 38 -33 52 -42 l25 -18 -25 7 c-42 12 -151 80 -230 144
-41 33 -78 57 -82 55 -5 -3 -7 -1 -6 4 2 5 -18 32 -44 61 -26 28 -45 51 -41
51 3 0 -4 8 -15 18 -36 32 -112 194 -131 280 -20 97 -25 219 -10 265 l14 42 8
-85 c4 -47 16 -129 26 -184z m3778 232 c-3 -7 -5 -2 -5 12 0 14 2 19 5 13 2
-7 2 -19 0 -25z m-1027 -23 c0 -2 -10 -9 -22 -15 -22 -11 -22 -10 -4 4 21 17
26 19 26 11z m1037 -32 c-3 -10 -5 -4 -5 12 0 17 2 24 5 18 2 -7 2 -21 0 -30z
m203 -78 c35 -168 -66 -421 -212 -532 -56 -43 -188 -109 -188 -95 0 10 58 64
128 121 58 48 106 111 127 169 7 20 14 29 14 19 1 -10 -6 -33 -13 -52 -8 -19
-13 -35 -11 -35 9 0 68 122 101 209 34 91 36 101 31 190 -5 100 3 103 23 6z
m-1325 55 c-3 -5 -12 -10 -18 -10 -7 0 -6 4 3 10 19 12 23 12 15 0z m-2885
-122 c15 -117 80 -296 133 -368 6 -8 -2 -3 -19 12 -78 71 -125 199 -138 373
-8 109 9 97 24 -17z m1250 57 c25 -13 41 -24 35 -24 -5 0 -30 11 -55 24 -25
13 -40 24 -35 24 6 0 30 -11 55 -24z m2770 -75 c0 -49 -6 -113 -14 -142 -30
-115 -94 -240 -143 -279 -10 -8 -5 3 10 24 74 99 127 267 127 405 0 60 4 91
10 87 6 -3 10 -46 10 -95z m107 -2 c-2 -18 -4 -4 -4 32 0 36 2 50 4 33 2 -18
2 -48 0 -65z m1964 17 c0 -11 1 -68 2 -127 l2 -108 -332 0 -333 0 0 -25 0 -26
330 1 330 2 3 -119 2 -118 -364 0 -364 0 -1 267 -1 268 215 3 c118 2 281 3
363 3 141 -1 147 -1 148 -21z m-7471 -250 l0 -265 -345 0 -345 0 0 115 0 115
279 0 279 0 4 25 c3 13 3 27 0 30 -3 3 -131 5 -284 5 l-278 0 0 120 0 120 345
0 345 0 0 -265z m1245 105 c55 -109 92 -158 214 -284 78 -81 78 -81 -39 -2
-19 13 -53 44 -74 69 -22 25 -43 44 -47 41 -4 -2 -11 1 -15 7 -4 8 -3 9 4 5 7
-4 12 -4 12 1 0 12 -69 130 -70 118 0 -5 12 -30 25 -54 14 -24 24 -46 21 -48
-2 -3 -20 24 -39 59 -36 65 -74 173 -56 163 6 -4 7 10 4 37 l-5 43 18 -50 c11
-27 32 -75 47 -105z m4212 118 c-3 -8 -6 -5 -6 6 -1 11 2 17 5 13 3 -3 4 -12
1 -19z m-411 -64 c-4 -14 -9 -24 -12 -21 -3 2 -2 17 2 31 3 15 9 25 11 22 3
-3 2 -17 -1 -32z m419 -26 c-9 -42 -36 -110 -42 -105 -4 5 38 137 44 137 3 0
1 -15 -2 -32z m-128 -25 c-3 -10 -5 -4 -5 12 0 17 2 24 5 18 2 -7 2 -21 0 -30z
m-368 -116 c-28 -52 -71 -117 -96 -144 l-44 -48 35 48 c19 26 60 92 91 148 32
55 59 98 61 96 3 -2 -19 -47 -47 -100z m498 41 c-3 -8 -6 -5 -6 6 -1 11 2 17
5 13 3 -3 4 -12 1 -19z m-3676 -75 c13 -16 12 -17 -3 -4 -17 13 -22 21 -14 21
2 0 10 -8 17 -17z m38 -57 c-3 -3 -11 5 -18 17 -13 21 -12 21 5 5 10 -10 16
-20 13 -22z m2931 10 c0 -2 -8 -10 -17 -17 -16 -13 -17 -12 -4 4 13 16 21 21
21 13z m-1076 -92 c30 -11 16 -30 -63 -88 -74 -54 -148 -125 -230 -220 l-33
-39 -26 34 c-65 86 -251 249 -285 249 -14 0 49 -77 142 -175 47 -50 105 -112
128 -139 23 -26 46 -46 52 -44 13 4 225 228 216 228 -3 0 -29 -22 -56 -50 -44
-44 -59 -56 -59 -47 0 1 30 32 66 67 37 36 63 58 58 50 -7 -13 -5 -13 9 -1 9
7 14 18 10 24 -3 5 -2 7 4 4 10 -6 80 72 76 84 -1 4 7 15 18 25 19 17 20 17
13 -1 -5 -12 -4 -16 3 -12 6 4 14 0 17 -9 3 -8 10 -12 16 -9 5 3 10 -1 10 -9
0 -9 5 -16 10 -16 6 0 10 -13 10 -30 0 -25 -25 -57 -147 -186 -82 -87 -177
-191 -212 -232 -55 -63 -66 -71 -74 -57 -5 10 -12 13 -16 9 -3 -5 -33 20 -66
56 l-59 65 62 -60 c34 -33 62 -55 62 -50 0 6 -89 103 -198 216 -218 226 -220
229 -182 306 11 21 19 32 20 24 0 -11 3 -11 15 -1 37 31 157 -15 284 -110 l79
-58 63 51 c97 78 212 156 231 157 9 0 23 -3 32 -6z m-1679 -86 c72 -73 74 -76
22 -32 -49 41 -116 114 -105 114 2 0 39 -37 83 -82z m2795 39 c0 -2 -10 -12
-22 -23 l-23 -19 19 23 c18 21 26 27 26 19z m-1130 -42 c-13 -14 -26 -22 -29
-19 -3 3 5 14 18 25 33 27 39 24 11 -6z m-3984 -55 l313 0 3 -282 c2 -156 7
-292 13 -303 9 -19 8 -19 -15 -4 -14 9 -25 24 -25 32 0 9 -7 22 -15 29 -12 11
-12 10 0 -7 14 -19 14 -19 -3 -6 -10 8 -16 20 -13 28 3 8 2 12 -3 9 -5 -3 -39
47 -77 111 -38 63 -85 134 -105 157 -41 46 -13 42 -291 44 l-158 2 0 101 0
102 31 -7 c17 -3 172 -6 345 -6z m7784 -95 l0 -105 -163 0 -163 0 -17 -92 c-9
-51 -26 -163 -38 -248 -11 -85 -25 -176 -30 -203 -4 -26 -16 -107 -24 -180
-21 -171 -53 -308 -116 -487 -95 -268 -167 -388 -334 -555 -193 -194 -411
-343 -805 -552 -118 -63 -219 -118 -225 -123 -7 -6 -32 11 -70 45 -32 30 -57
56 -54 57 2 2 69 36 149 77 387 198 719 439 931 676 237 265 424 659 529 1114
17 73 33 163 36 200 l6 66 -54 -97 c-68 -120 -91 -172 -138 -318 -42 -130
-142 -374 -201 -492 -119 -238 -312 -458 -588 -671 l-76 -59 -38 43 c-21 23
-34 45 -30 49 4 3 78 60 163 126 329 253 454 422 719 977 53 111 113 232 134
268 75 133 166 367 149 383 -3 3 -18 6 -33 6 -34 0 -51 -21 -142 -175 -36 -60
-86 -141 -111 -178 -49 -73 -55 -101 -31 -147 13 -25 13 -29 -3 -35 -23 -9
-872 6 -897 16 -12 4 33 9 110 10 72 2 104 4 73 6 -55 4 -74 15 -45 26 6 3 2
6 -11 6 -13 1 -21 5 -18 10 10 16 -50 35 -129 41 -44 3 127 9 380 13 253 5
462 10 464 12 14 14 20 123 21 343 l0 252 360 0 360 0 0 -105z m-3580 -80 c0
-62 -15 -85 -162 -249 -116 -130 -182 -225 -209 -300 -18 -53 -26 -130 -47
-459 -4 -65 -4 -121 0 -123 11 -7 44 93 93 278 55 207 99 346 131 410 22 44
40 65 49 56 2 -2 -11 -59 -29 -128 -18 -69 -54 -224 -80 -345 -25 -121 -73
-332 -106 -470 -33 -137 -83 -349 -111 -470 -27 -121 -52 -227 -55 -235 -11
-30 -25 19 -60 212 -19 106 -53 263 -74 348 -21 85 -50 209 -64 275 -14 66
-62 266 -107 445 -81 321 -99 411 -78 380 46 -69 103 -229 189 -533 60 -213
73 -247 96 -247 27 0 14 263 -21 440 -43 213 -68 255 -357 592 -64 74 -68 81
-68 128 0 27 4 51 9 54 5 4 7 -4 5 -16 -3 -17 -1 -16 7 5 6 15 14 27 18 27 11
0 184 -181 257 -270 109 -132 129 -161 158 -225 31 -67 38 -121 56 -420 17
-284 18 -293 41 -300 11 -4 23 -5 25 -2 9 9 23 217 24 357 1 242 13 336 48
407 33 64 129 180 295 355 90 95 103 106 115 91 6 -9 12 -40 12 -68z m-3040
-79 c0 -2 -9 -6 -20 -9 -11 -3 -18 -1 -14 4 5 9 34 13 34 5z m3178 -75 c52
-39 54 -43 37 -78 -8 -16 -24 -74 -35 -129 -28 -137 -84 -345 -206 -778 -153
-537 -194 -668 -288 -925 -98 -264 -154 -393 -168 -385 -6 4 -7 -2 -3 -16 16
-50 -15 -6 -36 50 -12 33 -24 60 -26 60 -3 0 -3 -6 0 -12 12 -34 18 -62 9 -48
-16 24 -60 159 -77 234 -8 38 -20 74 -24 80 -5 6 -12 28 -16 48 -4 21 -11 36
-15 33 -9 -6 -32 62 -105 305 -26 85 -57 189 -70 230 -13 41 -44 145 -69 230
-25 85 -66 223 -91 305 -74 242 -185 694 -185 754 0 25 36 51 72 51 20 0 31
-8 42 -27 17 -34 33 -94 40 -148 13 -105 53 -262 191 -755 35 -124 78 -279 95
-345 18 -66 38 -140 47 -165 26 -78 103 -379 133 -523 23 -110 34 -142 52
-157 13 -11 28 -19 34 -20 13 0 41 88 99 300 20 74 68 245 106 380 38 135 86
304 105 375 20 72 47 166 59 210 45 153 120 469 149 625 33 173 39 196 59 233
11 20 26 37 32 37 7 0 30 -13 53 -29z m-3111 -17 c-3 -3 -12 -4 -19 -1 -8 3
-5 6 6 6 11 1 17 -2 13 -5z m4728 -4 c3 -5 2 -10 -4 -10 -5 0 -13 5 -16 10 -3
6 -2 10 4 10 5 0 13 -4 16 -10z m-3438 -112 c82 -73 85 -79 59 -99 -19 -15
-255 -141 -536 -286 -63 -33 -116 -66 -117 -74 -2 -8 90 -122 205 -255 358
-416 454 -527 518 -599 203 -228 313 -359 360 -430 52 -77 53 -82 42 -113 -12
-31 -28 -43 -28 -20 0 6 -3 8 -6 5 -4 -4 -1 -14 7 -24 12 -15 12 -16 -3 -10
-10 3 -18 2 -18 -4 0 -6 -5 -7 -11 -4 -6 4 -8 13 -5 21 6 16 -82 123 -199 239
-44 44 -123 129 -175 189 -52 61 -127 144 -165 186 -134 145 -475 547 -609
718 -27 34 -50 62 -52 62 -2 0 -20 -11 -40 -25 -20 -14 -126 -69 -235 -122
-109 -54 -198 -102 -198 -106 -1 -16 172 -221 283 -334 l109 -113 -19 -22
c-10 -11 -73 -66 -139 -121 -66 -55 -168 -142 -227 -195 l-107 -95 66 -43 65
-44 101 93 c56 52 131 118 167 147 189 153 299 240 338 265 23 15 42 31 42 36
0 9 -35 52 -101 126 -53 59 -188 232 -238 306 -31 46 -29 68 3 25 l17 -23 -11
23 c-9 18 -8 27 2 39 12 15 11 15 -9 5 -37 -20 -39 -13 -3 13 19 14 39 25 44
25 6 0 36 -31 68 -68 349 -416 439 -520 598 -692 222 -241 446 -495 505 -573
27 -36 89 -75 145 -92 26 -7 303 -162 353 -197 31 -21 47 -18 28 6 -13 16
-148 365 -247 641 -36 99 -73 200 -83 225 -10 25 -39 113 -65 195 -27 83 -94
285 -151 450 -56 165 -108 324 -115 353 -8 28 -17 52 -21 52 -4 0 -59 -27
-121 -61 -197 -106 -369 -190 -385 -187 -23 5 -79 86 -67 98 6 6 127 71 270
146 142 75 285 152 317 171 32 19 61 33 64 30 3 -3 20 -63 38 -134 82 -315
479 -1524 515 -1567 4 -6 27 -63 50 -126 23 -63 69 -175 101 -248 32 -73 61
-145 64 -160 5 -28 -3 -11 -67 131 -17 37 -33 66 -35 63 -2 -2 11 -37 30 -77
18 -41 42 -98 52 -126 10 -29 22 -53 27 -53 4 0 5 8 3 18 -3 9 1 4 9 -13 8
-16 13 -31 13 -32 -1 -1 -54 24 -117 54 -63 30 -189 90 -280 133 -350 164
-330 152 -456 284 -63 66 -114 125 -114 130 0 5 12 -1 28 -15 27 -24 27 -23
-2 8 -16 18 -32 30 -36 28 -8 -5 -429 434 -511 532 l-44 51 -40 -35 c-22 -20
-62 -56 -88 -80 l-48 -45 28 -21 c15 -12 51 -42 79 -67 202 -179 397 -343 490
-410 27 -20 49 -42 49 -50 0 -8 -19 -28 -42 -45 -42 -30 -52 -45 -32 -45 16 0
143 -57 459 -205 176 -83 599 -275 605 -275 3 0 40 -18 84 -39 l80 -39 213
100 c117 55 380 180 583 279 204 98 376 179 384 179 11 0 10 6 -5 23 -50 56
-54 47 73 153 65 54 190 162 277 239 88 77 180 157 205 178 25 22 47 42 49 47
1 4 -28 32 -65 62 -117 94 -73 118 -390 -213 -153 -160 -313 -328 -356 -374
-126 -136 -178 -170 -477 -320 -151 -76 -307 -152 -347 -171 l-72 -32 26 70
c14 39 43 109 64 154 48 102 76 178 189 504 49 140 116 332 149 425 34 94 91
271 127 395 37 124 76 243 87 264 23 47 98 274 133 405 14 52 28 100 32 108 6
9 41 -7 138 -65 72 -42 224 -126 337 -187 114 -60 207 -112 207 -115 0 -3 -23
-28 -50 -57 l-50 -52 -43 28 c-82 54 -449 243 -457 234 -4 -4 -38 -100 -75
-213 -37 -113 -106 -308 -152 -435 -83 -227 -190 -519 -219 -603 -9 -23 -19
-40 -23 -38 -4 3 -22 -41 -40 -97 -57 -176 -172 -491 -188 -516 -17 -26 -4
-22 32 10 11 10 111 65 222 122 110 57 217 117 236 133 19 16 90 92 157 169
67 77 186 208 264 290 210 222 393 422 445 487 97 121 336 406 341 407 3 0 24
-17 48 -38 l43 -37 -137 -165 c-75 -90 -162 -190 -193 -222 l-56 -58 31 -27
c17 -15 100 -83 184 -152 85 -69 213 -182 285 -251 l130 -127 30 24 c17 13 49
32 72 41 24 10 42 21 40 25 -5 16 -263 240 -374 326 -68 52 -123 96 -123 98 0
1 35 38 77 81 97 99 353 376 350 379 -1 1 -114 59 -251 128 -242 124 -249 126
-269 109 -11 -10 -144 -173 -296 -363 -254 -318 -368 -452 -591 -695 -45 -49
-128 -143 -183 -208 -55 -64 -104 -117 -107 -117 -11 0 -50 77 -50 97 0 26 45
93 122 180 347 393 446 509 635 746 58 72 153 184 211 249 142 159 160 185
141 202 -8 8 -75 40 -149 71 -164 69 -318 147 -424 214 -44 28 -84 52 -89 54
-32 10 118 127 162 127 32 0 119 -40 188 -86 49 -32 291 -174 298 -174 1 0 42
-24 91 -53 49 -30 170 -96 269 -147 133 -69 467 -255 492 -274 3 -3 -146 -196
-201 -261 -28 -33 -88 -100 -133 -149 -46 -49 -83 -91 -82 -95 0 -3 30 -31 66
-61 85 -70 336 -313 374 -361 l29 -37 -96 -68 c-53 -37 -123 -92 -155 -121
-33 -29 -64 -53 -68 -53 -5 0 -71 57 -148 127 -76 70 -164 151 -196 180 -32
29 -64 53 -70 53 -10 0 -175 -137 -240 -199 -17 -16 -7 -26 185 -203 112 -103
228 -212 258 -243 l55 -56 -25 -19 c-14 -11 -59 -33 -100 -51 -41 -17 -158
-69 -260 -114 -268 -121 -704 -314 -935 -415 -110 -48 -301 -132 -425 -188
-377 -169 -402 -170 -715 -34 -88 38 -241 108 -341 155 -99 47 -221 102 -270
122 -49 20 -141 59 -204 87 -785 343 -1000 443 -1000 464 0 4 6 1 14 -5 17
-14 178 -82 183 -78 2 2 -34 20 -79 41 l-82 37 39 24 c22 13 37 25 33 25 -10
0 41 50 52 50 4 0 10 -6 13 -12 3 -10 7 -10 19 -1 8 7 18 10 21 6 4 -3 -1 -12
-11 -20 -14 -11 -11 -11 13 1 29 14 96 76 82 76 -3 0 -20 -14 -38 -31 -21 -21
-35 -27 -42 -20 -6 6 -4 15 7 26 9 9 16 22 16 28 0 8 4 7 9 -2 7 -10 9 -6 8
13 l-2 27 -15 -23 c-33 -49 -55 -69 -72 -63 -9 4 -15 14 -13 23 2 9 4 20 4 23
1 4 52 48 114 100 154 128 208 180 201 191 -4 6 0 14 7 19 15 10 22 2 -159
167 l-92 83 -103 -88 c-90 -79 -253 -215 -299 -251 -14 -11 -21 -11 -45 1 -51
27 -245 200 -233 207 8 5 9 10 2 14 -13 8 74 103 90 98 5 -1 7 2 3 8 -3 5 2
13 12 17 24 8 63 44 63 57 1 6 42 47 92 91 50 44 107 95 127 114 l36 33 -45
-33 c-59 -43 -200 -169 -325 -288 -55 -53 -97 -93 -95 -89 21 30 229 231 333
321 l128 110 -88 91 c-120 123 -323 388 -323 421 0 7 141 83 313 170 343 173
590 311 799 447 125 81 191 115 225 117 7 1 39 -22 70 -51z m3493 -8 c0 -5 -5
-10 -11 -10 -5 0 -7 5 -4 10 3 6 8 10 11 10 2 0 4 -4 4 -10z m-4712 -57 c-10
-2 -26 -2 -35 0 -10 3 -2 5 17 5 19 0 27 -2 18 -5z m-1335 -135 c3 -32 1 -58
-4 -58 -5 0 -9 28 -9 62 0 75 7 73 13 -4z m905 55 c-93 -2 -243 -2 -335 0 -93
1 -17 3 167 3 184 0 260 -2 168 -3z m-215 -110 c-35 -2 -91 -2 -125 0 -35 2
-7 3 62 3 69 0 97 -1 63 -3z m225 0 c-10 -2 -26 -2 -35 0 -10 3 -2 5 17 5 19
0 27 -2 18 -5z m-832 -240 c-3 -8 -2 -12 3 -8 5 3 15 -11 21 -31 7 -19 14 -34
16 -32 2 2 -10 42 -25 89 -16 46 -31 100 -35 119 -4 19 11 -14 32 -75 106
-304 252 -595 392 -784 223 -300 652 -632 1044 -806 l109 -49 -57 -53 c-52
-49 -87 -69 -70 -41 4 6 3 8 -3 5 -16 -10 -369 183 -522 285 -244 163 -512
401 -610 543 -66 95 -146 256 -187 375 l-33 95 -2 -80 -2 -80 -8 104 c-4 57
-17 133 -28 170 -27 92 -68 272 -80 356 -6 39 -13 86 -16 105 -3 19 10 -16 30
-79 20 -63 34 -120 31 -128z m-6 -147 c34 -132 35 -167 2 -54 -41 140 -83 347
-81 403 1 17 12 -28 25 -100 13 -71 37 -184 54 -249z m200 229 c0 -5 -5 -3
-10 5 -5 8 -10 20 -10 25 0 6 5 3 10 -5 5 -8 10 -19 10 -25z m7039 -1286 l1
-746 -24 -95 c-58 -229 -206 -419 -406 -521 -50 -26 -101 -47 -113 -47 -27 0
-13 13 33 30 152 58 352 266 419 437 47 121 50 163 55 938 3 402 9 748 13 770
l7 40 7 -30 c4 -16 7 -366 8 -776z m-6698 674 c13 -16 12 -17 -3 -4 -10 7 -18
15 -18 17 0 8 8 3 21 -13z m-454 -215 c-1 -40 -3 -8 -3 72 0 80 2 112 3 73 2
-40 2 -106 0 -145z m715 -156 c21 -14 36 -27 34 -30 -9 -8 -100 66 -171 139
l-70 73 85 -78 c46 -44 102 -90 122 -104z m-141 151 c13 -16 12 -17 -3 -4 -10
7 -18 15 -18 17 0 8 8 3 21 -13z m94 -13 c10 -11 16 -20 13 -20 -3 0 -13 9
-23 20 -10 11 -16 20 -13 20 3 0 13 -9 23 -20z m165 -137 c0 -7 -89 60 -107
81 -10 11 10 -2 45 -29 34 -26 62 -50 62 -52z m6194 35 c3 -13 6 -257 6 -543
0 -588 -2 -607 -71 -734 -82 -152 -197 -262 -357 -344 l-104 -52 -1026 -3
c-958 -3 -1198 2 -1281 25 l-25 6 25 11 c16 8 367 13 1129 16 l1105 5 58 22
c162 61 318 194 390 330 64 122 67 150 67 678 1 259 5 489 9 512 7 37 44 92
62 93 4 0 9 -10 13 -22z m-6252 -111 c37 -28 66 -52 64 -55 -2 -2 -28 16 -58
40 -29 24 -64 51 -78 61 -14 10 -18 15 -10 11 8 -4 45 -30 82 -57z m-765 -734
c-1 -147 -2 -29 -2 262 0 292 1 412 2 268 2 -144 2 -382 0 -530z m168 680 c5
-60 5 -277 2 -484 -6 -447 -2 -483 68 -616 25 -49 69 -115 98 -147 63 -72 176
-148 266 -178 l66 -23 1087 -5 c597 -3 1090 -8 1094 -12 4 -4 -10 -16 -32 -25
-36 -17 -111 -18 -1100 -21 l-1060 -3 -82 30 c-52 18 -100 44 -131 70 -27 23
-54 41 -60 41 -34 0 -149 137 -200 239 -63 123 -65 152 -63 686 3 450 9 555
31 555 5 0 12 -48 16 -107z m745 24 c0 -2 -10 -12 -22 -23 l-23 -19 19 23 c18
21 26 27 26 19z m955 -307 c-10 -11 -50 -46 -88 -77 -39 -32 -108 -91 -154
-130 -82 -71 -114 -93 -79 -54 9 10 51 47 93 82 41 35 111 94 155 132 79 66
108 85 73 47z m906 3 c13 -16 12 -17 -3 -4 -17 13 -22 21 -14 21 2 0 10 -8 17
-17z m63 -69 c7 -19 2 -18 -19 6 -16 17 -16 20 -3 15 9 -4 19 -13 22 -21z
m-1344 -269 c-24 -25 -46 -45 -49 -45 -3 0 15 20 39 45 24 25 46 45 49 45 3 0
-15 -20 -39 -45z m2020 -40 c0 -5 -5 -3 -10 5 -5 8 -10 20 -10 25 0 6 5 3 10
-5 5 -8 10 -19 10 -25z m-3533 -297 c-3 -8 -6 -5 -6 6 -1 11 2 17 5 13 3 -3 4
-12 1 -19z m30 -30 c-3 -8 -6 -5 -6 6 -1 11 2 17 5 13 3 -3 4 -12 1 -19z m-20
-20 c-3 -8 -6 -5 -6 6 -1 11 2 17 5 13 3 -3 4 -12 1 -19z m84 -155 c15 -35 26
-63 23 -63 -8 0 -64 124 -63 140 0 13 1 13 6 0 3 -8 18 -43 34 -77z m3 -55
c15 -27 25 -48 22 -48 -7 0 -56 84 -56 95 0 11 1 9 34 -47z m51 -44 c9 -15 12
-23 6 -20 -11 7 -35 46 -28 46 3 0 12 -12 22 -26z m136 -156 l44 -40 -42 31
c-23 18 -60 55 -83 84 l-42 52 40 -44 c22 -24 59 -61 83 -83z m556 -225 c-20
-2 -52 -2 -70 0 -17 2 0 4 38 4 39 0 53 -2 32 -4z m4750 1 c-3 -3 -12 -4 -19
-1 -8 3 -5 6 6 6 11 1 17 -2 13 -5z m56 -1 c-7 -2 -19 -2 -25 0 -7 3 -2 5 12
5 14 0 19 -2 13 -5z m716 2 c-7 -6 -690 -7 -697 0 -3 3 154 5 348 5 194 0 351
-2 349 -5z"/>
<path d="M5010 9430 c-9 -6 -10 -10 -3 -10 6 0 15 5 18 10 8 12 4 12 -15 0z"/>
<path d="M5277 9381 c-4 -17 -3 -21 5 -13 5 5 8 16 6 23 -3 8 -7 3 -11 -10z"/>
<path d="M5210 9300 c-9 -6 -10 -10 -3 -10 6 0 15 5 18 10 8 12 4 12 -15 0z"/>
<path d="M5202 9268 c-9 -4 53 -6 138 -6 167 1 161 6 -13 10 -59 2 -116 0
-125 -4z"/>
<path d="M7150 9269 c-55 -3 -7 -6 137 -7 122 -1 224 1 226 6 6 8 -240 10
-363 1z"/>
<path d="M8398 9273 c12 -2 30 -2 40 0 9 3 -1 5 -23 4 -22 0 -30 -2 -17 -4z"/>
<path d="M7028 9263 c7 -3 16 -2 19 1 4 3 -2 6 -13 5 -11 0 -14 -3 -6 -6z"/>
<path d="M8464 9210 c9 -43 7 -52 -10 -71 -17 -18 -26 -20 -74 -14 -62 7
-2182 6 -2190 -2 -3 -3 477 -4 1065 -2 819 2 1080 0 1112 -10 46 -13 65 -7 97
27 15 17 17 30 11 71 -4 28 -10 51 -14 51 -4 0 -3 -22 3 -50z"/>
<path d="M6130 9026 c0 -2 9 -6 20 -9 11 -3 18 -1 14 4 -5 9 -34 13 -34 5z"/>
<path d="M6310 9000 c0 -5 5 -10 10 -10 6 0 10 5 10 10 0 6 -4 10 -10 10 -5 0
-10 -4 -10 -10z"/>
<path d="M2467 9520 c-134 -34 -221 -142 -221 -275 0 -102 84 -199 199 -230
72 -20 123 -16 195 16 137 61 192 209 126 343 -55 112 -184 174 -299 146z"/>
<path d="M5048 8823 c7 -3 16 -2 19 1 4 3 -2 6 -13 5 -11 0 -14 -3 -6 -6z"/>
<path d="M4813 8763 c-40 -15 -71 -28 -69 -31 5 -5 166 47 166 54 0 8 -27 2
-97 -23z"/>
<path d="M6069 8715 c40 -20 75 -34 78 -32 2 2 -25 17 -59 32 -93 40 -104 40
-19 0z"/>
<path d="M6200 8656 c0 -3 14 -12 30 -21 17 -9 30 -13 30 -11 0 3 -13 12 -30
21 -16 9 -30 13 -30 11z"/>
<path d="M6951 8140 c14 -31 19 -36 19 -24 0 6 -7 19 -16 30 -14 18 -14 18 -3
-6z"/>
<path d="M6990 8055 c0 -5 5 -17 10 -25 5 -8 10 -10 10 -5 0 6 -5 17 -10 25
-5 8 -10 11 -10 5z"/>
<path d="M2358 8703 c7 -3 16 -2 19 1 4 3 -2 6 -13 5 -11 0 -14 -3 -6 -6z"/>
<path d="M5900 8559 c65 -27 155 -58 158 -55 5 5 -154 66 -170 65 -7 0 -2 -5
12 -10z"/>
<path d="M6290 8367 c0 -3 17 -17 37 -33 20 -15 33 -23 29 -16 -8 13 -66 56
-66 49z"/>
<path d="M5718 8343 c7 -3 16 -2 19 1 4 3 -2 6 -13 5 -11 0 -14 -3 -6 -6z"/>
<path d="M5768 8333 c7 -3 16 -2 19 1 4 3 -2 6 -13 5 -11 0 -14 -3 -6 -6z"/>
<path d="M4918 8303 c7 -3 16 -2 19 1 4 3 -2 6 -13 5 -11 0 -14 -3 -6 -6z"/>
<path d="M5980 8272 c30 -15 102 -49 160 -76 58 -26 126 -61 153 -77 26 -16
47 -27 47 -24 0 15 -135 90 -257 143 -145 64 -200 82 -103 34z"/>
<path d="M6514 8147 c27 -31 51 -57 53 -57 7 0 -76 98 -90 107 -7 4 10 -19 37
-50z"/>
<path d="M4580 8165 c-14 -8 -20 -14 -14 -15 5 0 19 7 30 15 24 18 16 19 -16
0z"/>
<path d="M4491 8141 c-19 -10 -36 -26 -37 -35 -1 -9 0 -16 2 -16 12 0 69 46
72 58 3 15 4 15 -37 -7z m19 -6 c0 -2 -10 -9 -22 -15 -22 -11 -22 -10 -4 4 21
17 26 19 26 11z"/>
<path d="M6574 7875 c8 -8 18 -15 22 -15 3 0 1 7 -6 15 -7 8 -17 15 -22 15 -5
0 -3 -7 6 -15z"/>
<path d="M4046 5060 c15 -28 29 -48 31 -46 5 5 -46 96 -54 96 -2 0 8 -23 23
-50z"/>
<path d="M6591 4886 l-24 -31 28 27 c16 15 27 29 24 31 -2 3 -15 -10 -28 -27z"/>
<path d="M2670 7923 c0 -5 13 -17 28 -27 27 -20 27 -20 9 0 -9 12 -14 24 -10
27 3 4 -1 7 -10 7 -9 0 -17 -3 -17 -7z"/>
<path d="M5984 7848 c-4 -7 -14 -23 -22 -35 -8 -13 -10 -23 -5 -23 5 0 17 16
26 35 16 33 16 49 1 23z"/>
<path d="M6434 7235 c17 -40 35 -73 36 -64 0 10 -40 99 -46 99 -2 0 2 -16 10
-35z"/>
<path d="M6242 7133 c-69 -16 -346 -150 -440 -213 -33 -22 -68 -52 -77 -66
-18 -28 -17 -28 50 17 53 36 281 140 389 178 47 17 125 37 173 46 147 26 141
24 119 41 -26 18 -131 17 -214 -3z"/>
<path d="M5300 6850 c-12 -8 -12 -10 5 -9 11 0 29 4 40 9 18 8 18 9 -5 9 -14
0 -32 -4 -40 -9z"/>
<path d="M4525 6730 c-79 -32 -112 -176 -62 -270 12 -24 32 -49 44 -57 20 -14
20 -13 -3 33 -40 79 -26 194 33 272 25 33 23 37 -12 22z"/>
<path d="M6304 6699 c24 -28 26 -38 26 -122 0 -69 -5 -103 -20 -137 l-20 -45
24 29 c33 40 51 107 51 189 0 63 -3 71 -28 93 -42 36 -65 32 -33 -7z"/>
<path d="M6370 6309 c-64 -30 -180 -69 -204 -69 -12 0 -28 -5 -36 -10 -20 -12
46 -3 120 17 54 15 170 68 170 78 0 7 0 7 -50 -16z"/>
<path d="M6068 6233 c6 -2 18 -2 25 0 6 3 1 5 -13 5 -14 0 -19 -2 -12 -5z"/>
<path d="M5376 6138 c-2 -7 -16 -71 -31 -142 l-27 -130 55 -53 54 -53 54 39
c32 22 52 44 50 52 -3 8 -20 74 -39 147 -19 72 -38 132 -41 132 -7 0 11 -169
23 -227 7 -29 4 -34 -34 -59 -35 -23 -43 -25 -51 -13 -6 8 -9 80 -7 167 3 145
2 168 -6 140z"/>
<path d="M5413 5563 c9 -2 23 -2 30 0 6 3 -1 5 -18 5 -16 0 -22 -2 -12 -5z"/>
<path d="M5245 5515 c17 -14 59 -43 95 -65 l65 -39 85 46 c132 71 130 78 -14
42 l-83 -21 -69 25 c-38 13 -78 27 -89 31 -14 5 -11 0 10 -19z"/>
<path d="M4567 5449 c7 -7 15 -10 18 -7 3 3 -2 9 -12 12 -14 6 -15 5 -6 -5z"/>
<path d="M4746 5368 c5 -8 2 -9 -9 -5 -10 3 -17 4 -17 2 0 -3 46 -28 103 -55
56 -28 93 -44 83 -35 -11 8 -16 15 -10 15 10 0 -110 72 -139 83 -12 5 -16 3
-11 -5z m29 -18 c3 -6 -1 -7 -9 -4 -18 7 -21 14 -7 14 6 0 13 -4 16 -10z"/>
<path d="M4961 5251 c-8 -5 -4 -11 12 -18 13 -6 29 -8 36 -4 8 5 4 11 -12 18
-13 6 -29 8 -36 4z"/>
<path d="M5750 5225 c-14 -8 -20 -14 -14 -15 5 0 19 7 30 15 24 18 16 19 -16
0z"/>
<path d="M5037 5219 c7 -7 15 -10 18 -7 3 3 -2 9 -12 12 -14 6 -15 5 -6 -5z"/>
<path d="M5082 5197 c10 -8 14 -18 10 -22 -4 -5 -2 -5 5 -1 16 9 64 -14 56
-27 -3 -6 -1 -7 5 -3 7 4 12 3 12 -3 0 -6 18 -15 39 -22 22 -6 54 -25 72 -41
17 -16 37 -27 45 -24 7 3 14 0 16 -5 2 -6 19 -12 38 -15 19 -3 33 -4 30 -1 -3
2 -81 43 -175 91 -93 48 -162 80 -153 73z"/>
<path d="M5694 5194 c-18 -14 -18 -15 4 -4 12 6 22 13 22 15 0 8 -5 6 -26 -11z"/>
<path d="M5738 5194 c-38 -20 -36 -28 2 -9 17 9 30 18 30 20 0 7 -1 6 -32 -11z"/>
<path d="M5654 5144 c-18 -14 -18 -15 4 -4 12 6 22 13 22 15 0 8 -5 6 -26 -11z"/>
<path d="M5538 5086 c-42 -22 -80 -45 -85 -50 -8 -9 141 66 167 83 34 24 -10
6 -82 -33z"/>
<path d="M5468 5074 c-38 -20 -36 -28 2 -9 17 9 30 18 30 20 0 7 -1 6 -32 -11z"/>
<path d="M7330 7413 c75 -26 126 -68 164 -136 20 -34 36 -58 36 -54 0 11 -39
87 -62 120 -22 31 -126 87 -160 87 -15 -1 -8 -6 22 -17z"/>
<path d="M7137 7110 c-4 -19 -10 -197 -14 -395 -4 -198 -10 -337 -14 -310 -5
43 -6 37 -7 -35 -1 -52 -7 -91 -14 -98 -7 -7 -8 -12 -4 -12 12 0 94 60 205
149 l94 76 -6 195 c-4 144 -10 213 -23 265 l-19 70 -6 -105 c-9 -144 -10 -385
-3 -377 4 3 10 84 14 179 l7 173 1 -183 c2 -152 -1 -186 -13 -199 -8 -8 -13
-18 -10 -22 2 -5 -5 -17 -18 -27 l-22 -19 19 23 c37 43 -2 21 -67 -38 -36 -33
-67 -60 -69 -60 -1 0 -5 165 -7 367 -2 201 -7 378 -11 392 -7 25 -7 25 -13 -9z"/>
<path d="M7102 6820 c0 -14 2 -19 5 -12 2 6 2 18 0 25 -3 6 -5 1 -5 -13z"/>
<path d="M3680 7111 c-9 -66 -11 -178 -8 -415 3 -178 2 -330 -2 -337 -9 -14
-5 -16 -102 58 -68 52 -68 48 -68 344 0 189 2 229 15 239 17 14 21 45 5 35
-14 -9 -13 32 2 58 7 12 13 27 14 33 1 6 5 22 8 35 6 21 3 19 -24 -11 -54 -61
-79 -200 -81 -455 -1 -81 -4 -121 -9 -105 -6 18 -8 7 -9 -41 -1 -61 1 -67 32
-95 57 -54 180 -149 236 -183 l54 -33 -6 419 c-6 393 -14 514 -35 535 -5 5
-14 -29 -22 -81z"/>
<path d="M2758 7303 c7 -3 16 -2 19 1 4 3 -2 6 -13 5 -11 0 -14 -3 -6 -6z"/>
<path d="M2705 7290 c-3 -6 1 -7 9 -4 18 7 21 14 7 14 -6 0 -13 -4 -16 -10z"/>
<path d="M2134 6984 c-18 -14 -18 -14 6 -3 31 14 36 19 24 19 -6 0 -19 -7 -30
-16z"/>
<path d="M2084 6954 c-18 -14 -18 -15 4 -4 12 6 22 13 22 15 0 8 -5 6 -26 -11z"/>
<path d="M2536 4283 c-11 -11 -6 -23 8 -23 8 0 17 4 20 9 7 10 -19 23 -28 14z"/>
<path d="M2448 4263 c7 -3 16 -2 19 1 4 3 -2 6 -13 5 -11 0 -14 -3 -6 -6z"/>
<path d="M2598 4263 c7 -3 16 -2 19 1 4 3 -2 6 -13 5 -11 0 -14 -3 -6 -6z"/>
<path d="M2412 6291 c-8 -5 -12 -16 -10 -25 2 -12 6 -10 15 9 6 14 10 25 10
25 -1 0 -8 -4 -15 -9z"/>
<path d="M2523 6080 c0 -25 2 -35 4 -22 2 12 2 32 0 45 -2 12 -4 2 -4 -23z"/>
<path d="M2522 5890 c0 -14 2 -19 5 -12 2 6 2 18 0 25 -3 6 -5 1 -5 -13z"/>
<path d="M7375 5980 c10 -11 20 -20 23 -20 3 0 -3 9 -13 20 -10 11 -20 20 -23
20 -3 0 3 -9 13 -20z"/>
<path d="M3284 5828 l-19 -23 23 19 c21 18 27 26 19 26 -2 0 -12 -10 -23 -22z"/>
<path d="M3072 5320 c0 -19 2 -27 5 -17 2 9 2 25 0 35 -3 9 -5 1 -5 -18z"/>
<path d="M3081 5264 c0 -11 3 -14 6 -6 3 7 2 16 -1 19 -3 4 -6 -2 -5 -13z"/>
<path d="M3090 5235 c0 -19 54 -149 57 -138 3 7 -9 43 -26 80 -17 37 -31 64
-31 58z"/>
<path d="M6770 4710 c-9 -6 -10 -10 -3 -10 6 0 15 5 18 10 8 12 4 12 -15 0z"/>
<path d="M6730 4690 c-9 -6 -10 -10 -3 -10 6 0 15 5 18 10 8 12 4 12 -15 0z"/>
<path d="M3602 5340 c0 -14 2 -19 5 -12 2 6 2 18 0 25 -3 6 -5 1 -5 -13z"/>
<path d="M3612 5290 c0 -14 2 -19 5 -12 2 6 2 18 0 25 -3 6 -5 1 -5 -13z"/>
<path d="M3850 4895 c30 -30 57 -55 59 -55 3 0 -19 25 -49 55 -30 30 -57 55
-59 55 -3 0 19 -25 49 -55z"/>
<path d="M1364 4763 c7 -8 147 -5 155 2 2 3 -33 5 -79 5 -46 0 -80 -3 -76 -7z"/>
<path d="M1588 4763 c7 -3 16 -2 19 1 4 3 -2 6 -13 5 -11 0 -14 -3 -6 -6z"/>
<path d="M1458 4743 c7 -3 16 -2 19 1 4 3 -2 6 -13 5 -11 0 -14 -3 -6 -6z"/>
<path d="M4791 4402 c12 -29 23 -51 25 -49 7 6 -18 71 -33 87 -8 9 -5 -6 8
-38z"/>
<path d="M4130 4348 c-15 -6 -20 -12 -12 -15 8 -3 5 -11 -10 -24 l-23 -18 31
8 c31 9 57 2 54 -15 -1 -5 4 -10 11 -13 8 -2 9 1 3 10 -7 12 -5 12 9 0 10 -7
17 -9 17 -3 0 13 24 10 28 -3 2 -6 11 -18 19 -28 20 -21 10 -35 -12 -17 -9 7
-18 10 -22 7 -3 -4 2 -10 12 -13 15 -6 15 -8 -6 -20 -13 -7 -19 -13 -14 -14 6
0 27 11 48 23 l39 24 -61 58 c-67 64 -74 67 -111 53z m91 -45 c12 -16 12 -17
-2 -6 -9 7 -20 9 -24 5 -5 -4 -5 -1 -1 6 9 16 11 15 27 -5z m50 -50 c13 -16
12 -17 -3 -4 -17 13 -22 21 -14 21 2 0 10 -8 17 -17z"/>
<path d="M4183 4193 c4 -3 -1 -12 -11 -20 -15 -13 -15 -13 6 -3 19 9 23 30 5
30 -4 0 -3 -3 0 -7z"/>
<path d="M3883 3838 c-13 -6 -23 -15 -23 -20 0 -8 17 -1 50 22 20 13 1 12 -27
-2z"/>
<path d="M2845 3641 c-3 -5 0 -13 6 -17 7 -4 9 -3 5 4 -3 5 0 13 6 15 9 4 10
6 1 6 -6 1 -14 -3 -18 -8z"/>
<path d="M3800 3626 c0 -2 8 -10 18 -17 15 -13 16 -12 3 4 -13 16 -21 21 -21
13z"/>
<path d="M3915 3490 c10 -11 20 -20 23 -20 3 0 -3 9 -13 20 -10 11 -20 20 -23
20 -3 0 3 -9 13 -20z"/>
<path d="M3450 3486 c0 -2 8 -10 18 -17 15 -13 16 -12 3 4 -13 16 -21 21 -21
13z"/>
<path d="M3845 3430 c10 -11 20 -20 23 -20 3 0 -3 9 -13 20 -10 11 -20 20 -23
20 -3 0 3 -9 13 -20z"/>
<path d="M3880 3386 c0 -2 8 -10 18 -17 15 -13 16 -12 3 4 -13 16 -21 21 -21
13z"/>
<path d="M3050 3346 c0 -2 8 -10 18 -17 15 -13 16 -12 3 4 -13 16 -21 21 -21
13z"/>
<path d="M3080 3306 c0 -2 8 -10 18 -17 15 -13 16 -12 3 4 -13 16 -21 21 -21
13z"/>
<path d="M3260 3255 c19 -19 36 -35 39 -35 3 0 -10 16 -29 35 -19 19 -36 35
-39 35 -3 0 10 -16 29 -35z"/>
<path d="M3625 3270 c10 -11 20 -20 23 -20 3 0 -3 9 -13 20 -10 11 -20 20 -23
20 -3 0 3 -9 13 -20z"/>
<path d="M3980 3267 c0 -2 15 -16 33 -33 l32 -29 -29 33 c-28 30 -36 37 -36
29z"/>
<path d="M3685 3100 c-3 -6 1 -7 9 -4 18 7 21 14 7 14 -6 0 -13 -4 -16 -10z"/>
<path d="M3613 3049 c-29 -22 -53 -42 -53 -45 0 -2 25 14 55 37 48 36 62 49
53 49 -2 0 -27 -18 -55 -41z"/>
<path d="M3469 2933 l-24 -28 28 24 c25 23 32 31 24 31 -2 0 -14 -12 -28 -27z"/>
<path d="M3119 2883 l-24 -28 28 24 c25 23 32 31 24 31 -2 0 -14 -12 -28 -27z"/>
<path d="M3327 2820 c-59 -48 -139 -116 -177 -151 -67 -62 -69 -65 -51 -82 14
-14 21 -15 27 -6 4 7 3 10 -3 6 -6 -4 -13 0 -17 8 -3 8 -1 15 4 15 5 0 27 17
48 38 41 40 181 168 247 226 73 64 32 36 -78 -54z"/>
<path d="M4330 2876 c0 -2 8 -10 18 -17 15 -13 16 -12 3 4 -13 16 -21 21 -21
13z"/>
<path d="M4530 2785 c19 -19 36 -35 39 -35 3 0 -10 16 -29 35 -19 19 -36 35
-39 35 -3 0 10 -16 29 -35z"/>
<path d="M3009 2783 c-13 -16 -12 -17 4 -4 9 7 17 15 17 17 0 8 -8 3 -21 -13z"/>
<path d="M4435 2758 c22 -26 41 -45 44 -42 3 2 -15 24 -38 47 l-44 42 38 -47z"/>
<path d="M4169 2653 c62 -68 115 -123 118 -123 7 0 -167 188 -203 220 -16 14
23 -30 85 -97z"/>
<path d="M3379 2723 c-13 -16 -12 -17 4 -4 9 7 17 15 17 17 0 8 -8 3 -21 -13z"/>
<path d="M4632 2670 c25 -30 61 -80 81 -110 20 -30 37 -50 37 -44 0 13 -77
118 -125 169 -30 32 -28 29 7 -15z"/>
<path d="M3312 2669 c-19 -17 -32 -32 -30 -34 4 -4 68 53 68 61 0 7 -4 4 -38
-27z"/>
<path d="M4280 2666 c0 -2 8 -10 18 -17 15 -13 16 -12 3 4 -13 16 -21 21 -21
13z"/>
<path d="M3205 2580 c-33 -27 -77 -62 -97 -77 -21 -16 -38 -32 -38 -37 0 -5 8
-2 18 6 9 8 54 45 100 82 70 58 92 79 80 75 -2 0 -30 -22 -63 -49z"/>
<path d="M4615 2570 c21 -22 41 -40 44 -40 3 0 -13 18 -34 40 -21 22 -41 40
-44 40 -3 0 13 -18 34 -40z"/>
<path d="M2960 2552 c25 -22 47 -38 49 -36 5 4 -13 19 -64 55 -16 12 -10 3 15
-19z"/>
<path d="M4380 2555 c13 -14 26 -25 28 -25 3 0 -5 11 -18 25 -13 14 -26 25
-28 25 -3 0 5 -11 18 -25z"/>
<path d="M3032 2494 c10 -10 20 -16 22 -13 3 3 -5 11 -17 18 -21 13 -21 12 -5
-5z"/>
<path d="M4747 2485 c-4 -8 -3 -16 1 -19 4 -3 9 4 9 15 2 23 -3 25 -10 4z"/>
<path d="M3790 2417 c-54 -59 -251 -236 -299 -270 -23 -15 -23 -17 -5 -22 33
-10 102 -39 339 -143 127 -55 372 -161 545 -237 173 -75 380 -166 460 -202
279 -126 406 -180 487 -209 76 -27 85 -28 130 -16 48 13 183 70 388 164 61 28
241 108 400 179 394 173 903 399 998 443 l79 36 -59 48 c-32 27 -116 104 -187
170 -72 67 -134 122 -139 122 -9 0 -93 -64 -160 -122 l-39 -33 51 -43 c28 -24
51 -46 51 -51 0 -11 -92 -55 -785 -376 -181 -84 -397 -185 -478 -224 -82 -39
-153 -71 -159 -71 -6 0 -67 27 -137 59 -291 137 -450 210 -686 316 -552 249
-638 291 -639 310 0 6 22 25 49 43 28 17 51 36 53 42 3 9 -95 84 -165 125
l-38 22 -55 -60z"/>
<path d="M4480 2436 c0 -2 8 -10 18 -17 15 -13 16 -12 3 4 -13 16 -21 21 -21
13z"/>
<path d="M3699 2353 l-24 -28 28 24 c25 23 32 31 24 31 -2 0 -14 -12 -28 -27z"/>
<path d="M4480 2311 c56 -64 138 -131 161 -131 4 0 69 -29 144 -65 76 -36 139
-64 141 -62 2 2 -75 41 -171 87 -165 79 -179 87 -257 164 l-82 81 64 -74z"/>
<path d="M5080 2375 c0 -5 5 -17 10 -25 5 -8 10 -10 10 -5 0 6 -5 17 -10 25
-5 8 -10 11 -10 5z"/>
<path d="M4210 2366 c0 -2 8 -10 18 -17 15 -13 16 -12 3 4 -13 16 -21 21 -21
13z"/>
<path d="M4025 2294 c-16 -8 -40 -23 -53 -32 l-23 -18 28 -12 c25 -11 26 -11
10 2 -19 15 -6 33 15 20 7 -4 8 -3 4 4 -4 7 -4 12 1 12 9 0 61 40 53 40 -3 0
-18 -7 -35 -16z"/>
<path d="M3604 2268 l-29 -33 33 29 c30 28 37 36 29 36 -2 0 -16 -15 -33 -32z"/>
<path d="M5116 2280 c3 -14 11 -32 16 -40 6 -10 7 -7 2 10 -3 14 -11 32 -16
40 -6 10 -7 7 -2 -10z"/>
<path d="M3445 2220 c-3 -5 -1 -10 4 -10 6 0 11 5 11 10 0 6 -2 10 -4 10 -3 0
-8 -4 -11 -10z"/>
<path d="M5150 2185 c0 -5 5 -17 10 -25 5 -8 10 -10 10 -5 0 6 -5 17 -10 25
-5 8 -10 11 -10 5z"/>
<path d="M4200 2130 c19 -11 40 -19 45 -19 6 0 -6 8 -25 19 -19 11 -39 19 -45
19 -5 0 6 -8 25 -19z"/>
<path d="M3530 2085 c14 -8 30 -14 35 -14 6 0 -1 6 -15 14 -14 8 -29 14 -35
14 -5 0 1 -6 15 -14z"/>
<path d="M4340 2065 c25 -13 50 -24 55 -24 6 0 -10 11 -35 24 -25 13 -49 24
-55 24 -5 0 10 -11 35 -24z"/>
<path d="M3487 1999 c7 -7 15 -10 18 -7 3 3 -2 9 -12 12 -14 6 -15 5 -6 -5z"/>
<path d="M3527 1979 c7 -7 15 -10 18 -7 3 3 -2 9 -12 12 -14 6 -15 5 -6 -5z"/>
<path d="M3580 1955 c14 -8 30 -14 35 -14 6 0 -1 6 -15 14 -14 8 -29 14 -35
14 -5 0 1 -6 15 -14z"/>
<path d="M3820 1955 c14 -8 30 -14 35 -14 6 0 -1 6 -15 14 -14 8 -29 14 -35
14 -5 0 1 -6 15 -14z"/>
<path d="M4570 1960 c8 -5 20 -10 25 -10 6 0 3 5 -5 10 -8 5 -19 10 -25 10 -5
0 -3 -5 5 -10z"/>
<path d="M3660 1920 c19 -11 40 -19 45 -19 6 0 -6 8 -25 19 -19 11 -39 19 -45
19 -5 0 6 -8 25 -19z"/>
<path d="M3880 1930 c8 -5 20 -10 25 -10 6 0 3 5 -5 10 -8 5 -19 10 -25 10 -5
0 -3 -5 5 -10z"/>
<path d="M4000 1880 c8 -5 20 -10 25 -10 6 0 3 5 -5 10 -8 5 -19 10 -25 10 -5
0 -3 -5 5 -10z"/>
<path d="M4190 1795 c14 -8 30 -14 35 -14 6 0 -1 6 -15 14 -14 8 -29 14 -35
14 -5 0 1 -6 15 -14z"/>
<path d="M1910 3501 c0 -6 4 -13 10 -16 6 -3 7 1 4 9 -7 18 -14 21 -14 7z"/>
<path d="M2570 2666 c0 -2 8 -10 18 -17 15 -13 16 -12 3 4 -13 16 -21 21 -21
13z"/>
<path d="M2610 2636 c0 -2 8 -10 18 -17 15 -13 16 -12 3 4 -13 16 -21 21 -21
13z"/>
<path d="M2680 2456 c0 -3 9 -10 20 -16 11 -6 20 -8 20 -6 0 3 -9 10 -20 16
-11 6 -20 8 -20 6z"/>
<path d="M2890 2446 c0 -3 9 -10 20 -16 11 -6 20 -8 20 -6 0 3 -9 10 -20 16
-11 6 -20 8 -20 6z"/>
<path d="M2940 2416 c0 -3 9 -10 20 -16 11 -6 20 -8 20 -6 0 3 -9 10 -20 16
-11 6 -20 8 -20 6z"/>
<path d="M3010 2376 c0 -3 14 -12 30 -21 17 -9 30 -13 30 -11 0 3 -13 12 -30
21 -16 9 -30 13 -30 11z"/>
<path d="M2840 2356 c0 -3 9 -10 20 -16 11 -6 20 -8 20 -6 0 3 -9 10 -20 16
-11 6 -20 8 -20 6z"/>
<path d="M3120 2310 c8 -5 20 -10 25 -10 6 0 3 5 -5 10 -8 5 -19 10 -25 10 -5
0 -3 -5 5 -10z"/>
<path d="M2950 2295 c0 -2 23 -16 50 -30 28 -14 50 -23 50 -20 0 2 -22 16 -50
30 -27 14 -50 23 -50 20z"/>
<path d="M3285 2240 c-3 -5 -1 -10 4 -10 6 0 11 5 11 10 0 6 -2 10 -4 10 -3 0
-8 -4 -11 -10z"/>
</g>
</svg>
